<?xml version="1.0" encoding="UTF-8"?>
<svg width="270px" height="30px" viewBox="0 0 270 30" version="1.1" xmlns="http://www.w3.org/2000/svg" xmlns:xlink="http://www.w3.org/1999/xlink">
    <title>colorhunt-icons</title>
    <g id="colorhunt-icons" stroke="none" stroke-width="1" fill="none" fill-rule="evenodd" stroke-linejoin="round">
        
        <g id="Facebook" stroke="#000000" >
            <g transform="translate(8.000000, 3.000000)">
                <path d="M17.525,9H14V7c0-1.032,0.084-1.682,1.563-1.682h1.868v-3.18C16.522,2.044,15.608,1.998,14.693,2 C11.98,2,10,3.657,10,6.699V9H7v4l3-0.001V22h4v-9.003l3.066-0.001L17.525,9z"></path>
            </g>
        </g>

        <g id="Twitter" transform="translate(33.000000, 3.000000)" fill="#000000" >
            <path d="M 5 3 C 3.897 3 3 3.897 3 5 L 3 19 C 3 20.103 3.897 21 5 21 L 19 21 C 20.103 21 21 20.103 21 19 L 21 5 C 21 3.897 20.103 3 19 3 L 5 3 z M 5 5 L 19 5 L 19.001953 19 L 5 19 L 5 5 z M 14.566406 7.1132812 C 13.194406 7.1132812 12.080078 8.2286094 12.080078 9.5996094 C 12.080078 9.8566094 12.166016 10.028219 12.166016 10.199219 C 10.109016 10.114219 8.309375 9.0859063 7.109375 7.6289062 C 6.852375 7.9719062 6.765625 8.399125 6.765625 8.828125 C 6.765625 9.685125 7.1948594 10.372656 7.8808594 10.972656 C 7.4528594 10.886656 7.108625 10.799906 6.765625 10.628906 C 6.765625 11.828906 7.6223281 12.772297 8.7363281 13.029297 C 8.4793281 13.115297 8.3077812 13.115234 8.0507812 13.115234 C 7.9647813 13.115234 7.7920938 13.029297 7.6210938 13.029297 C 7.9640937 13.972297 8.8215469 14.742188 9.9355469 14.742188 C 9.0785469 15.342187 7.9636094 15.771484 6.8496094 15.771484 L 6.25 15.771484 C 7.364 16.456484 8.6504844 16.886719 10.021484 16.886719 C 14.564484 16.886719 17.050781 13.114422 17.050781 9.8574219 L 17.050781 9.5136719 C 17.479781 9.1706719 17.906953 8.7425625 18.251953 8.2265625 C 17.737953 8.4845625 17.308922 8.57025 16.794922 8.65625 C 17.308922 8.31425 17.737203 7.8851562 17.908203 7.2851562 C 17.479203 7.5421562 16.965234 7.7987656 16.365234 7.8847656 C 15.936234 7.3707656 15.252406 7.1132812 14.566406 7.1132812 z"></path>
        </g>


        <g id="Reddit" transform="translate(60.000000, 3.000000)" fill="#000000" >
            <path d="M14.238 15.348c.085.084.085.221 0 .306-.465.462-1.194.687-2.231.687l-.008-.002-.008.002c-1.036 0-1.766-.225-2.231-.688-.085-.084-.085-.221 0-.305.084-.084.222-.084.307 0 .379.377 1.008.561 1.924.561l.008.002.008-.002c.915 0 1.544-.184 1.924-.561.085-.084.223-.084.307 0zm-3.44-2.418c0-.507-.414-.919-.922-.919-.509 0-.923.412-.923.919 0 .506.414.918.923.918.508.001.922-.411.922-.918zm13.202-.93c0 6.627-5.373 12-12 12s-12-5.373-12-12 5.373-12 12-12 12 5.373 12 12zm-5-.129c0-.851-.695-1.543-1.55-1.543-.417 0-.795.167-1.074.435-1.056-.695-2.485-1.137-4.066-1.194l.865-2.724 2.343.549-.003.034c0 .696.569 1.262 1.268 1.262.699 0 1.267-.566 1.267-1.262s-.568-1.262-1.267-1.262c-.537 0-.994.335-1.179.804l-2.525-.592c-.11-.027-.223.037-.257.145l-.965 3.038c-1.656.02-3.155.466-4.258 1.181-.277-.255-.644-.415-1.05-.415-.854.001-1.549.693-1.549 1.544 0 .566.311 1.056.768 1.325-.03.164-.05.331-.05.5 0 2.281 2.805 4.137 6.253 4.137s6.253-1.856 6.253-4.137c0-.16-.017-.317-.044-.472.486-.261.82-.766.82-1.353zm-4.872.141c-.509 0-.922.412-.922.919 0 .506.414.918.922.918s.922-.412.922-.918c0-.507-.413-.919-.922-.919z" />
        </g>

        <g id="Group" transform="translate(90.000000, 0.000000)" stroke="#000000" stroke-linecap="round">
            <g id="Path">
                <path d="M14.0973402,15.9795815 C14.2810172,15.9242372 14.4186001,15.7885868 14.4619635,15.6149671 C14.5137566,15.3064325 14.3298016,15.0505832 14.0973447,14.9034676 C13.7302821,14.6928381 13.3024901,14.6859957 12.9401042,14.8223365 C12.4196621,15.0434987 12.0621636,15.488011 11.9002513,15.979577 C11.6937559,16.6222044 11.805301,17.3476488 12.1474467,17.929475 C12.561675,18.6338901 13.2982753,19.1264874 14.0973447,19.2976365 C15.0363555,19.4987378 16.0481843,19.2656598 16.8399001,18.7221325 C17.7512007,18.0964541 18.3687184,17.0722499 18.5363701,15.979577 C18.7247103,14.7521192 18.3528814,13.4643086 17.6008119,12.4761098 C16.7637193,11.3761283 15.4677481,10.6449894 14.0973447,10.4644242 C12.5813951,10.264677 11.0005191,10.7349088 9.80121997,11.6834523 C8.48798585,12.7221394 7.64053554,14.3148528 7.46122582,15.979577 C7.26630776,17.7894888 7.85468489,19.6604259 9.00856248,21.0683144 C10.2550319,22.5891962 12.1391515,23.5570383 14.0972998,23.7366171 C16.2007702,23.9295533 18.3614994,23.2197621 19.9787844,21.860927 C21.7086143,20.4074825 22.8030358,18.2323152 22.9754404,15.9794425 C23.1584269,13.5883771 22.3095866,11.1498725 20.7397409,9.33704625 C19.0778415,7.41795242 16.6293379,6.20968556 14.0973447,6.02521939"/>
            </g>
        </g>

        <g id="Group" transform="translate(180.000000, 0.000000)" stroke="#000000" stroke-linecap="round">
            <g transform="translate(6.500000, 8.000000)">
                <path d="M16,8.5 L16,10.5 C16,11.6045695 15.1045695,12.5 14,12.5 L2,12.5 C0.8954305,12.5 1.3527075e-16,11.6045695 0,10.5 L0,8.5 L0,8.5" id="Path"/>
                <polyline id="Path" transform="translate(8.000000, 4.500000) rotate(-315.000000) translate(-8.000000, -4.500000) " points="10.5 2 10.5 7 5.5 7"/>
                <line x1="8" y1="7" x2="8" y2="0" id="Path-8"/>
            </g>
        </g>

        <g id="Combined-Shape" transform="translate(150.000000, 0.000000)" fill="#FFFFFF" stroke="#111111">
            <path d="M14.6066017,6.39339828 C16.3223305,4.67766953 19.1040764,4.67766953 20.8198052,6.39339828 C21.5790923,7.15268541 22.0023607,8.12074779 22.0896104,9.11280054 L22.1066017,9.10660172 L22.1066017,18.1066017 C22.1066017,19.2111712 21.2111712,20.1066017 20.1066017,20.1066017 L11.1066017,20.1066017 L11.1128005,20.0896104 C10.1207478,20.0023607 9.15268541,19.5790923 8.39339828,18.8198052 C6.67766953,17.1040764 6.67766953,14.3223305 8.39339828,12.6066017 C10.0126667,10.9873333 12.5814563,10.8962961 14.3074911,12.3334901 L14.3149351,12.3149351 L14.3334901,12.3074911 C12.8962961,10.5814563 12.9873333,8.01266671 14.6066017,6.39339828 Z" transform="translate(14.606602, 12.606602) rotate(-315.000000) translate(-14.606602, -12.606602) "/>
        </g>

        <g id="Group" transform="translate(120.000000, 0.000000)" stroke="#000000" stroke-linecap="round">
            <g transform="translate(10.000000, 10.000000)">
                <line x1="4.5" y1="0" x2="1.5" y2="10.2666667" id="Line-4"/>
                <line x1="9.5" y1="0" x2="6.5" y2="10.2666667" id="Line-4"/>
                <line x1="1.41666667" y1="3.13333333" x2="10.5833333" y2="3.13333333" id="Line"/>
                <line x1="0.416666667" y1="7.13333333" x2="9.58333333" y2="7.13333333" id="Line"/>
            </g>
        </g>

        <g id="Group" transform="translate(210.000000, 0.000000)" stroke="#000000" stroke-linecap="round">
            <g id="Path" transform="translate(14.757130, 15.535763) rotate(-315.000000) translate(-14.757130, -15.535763) translate(9.757130, 6.899400)">
                <path d="M7.27272727,12.7272727 C7.27272727,13.1313131 7.27272727,13.7373737 7.27272727,14.5454545 C7.27272727,16.0516857 6.05168568,17.2727273 4.54545455,17.2727273 L2.72727273,17.2727273 C1.22104159,17.2727273 9.09494702e-13,16.0516857 9.09494702e-13,14.5454545 L9.09494702e-13,9.09090909 C9.09494702e-13,7.58467796 1.22104159,6.36363636 2.72727273,6.36363636 L4.54545455,6.36363636 C6.05168568,6.36363636 7.27272727,7.58467796 7.27272727,9.09090909"/>
                <path d="M2.72727273,4.54545455 C2.72727273,4.14141414 2.72727273,3.53535354 2.72727273,2.72727273 C2.72727273,1.22104159 3.94831432,0 5.45454545,0 L7.27272727,0 C8.77895841,0 10,1.22104159 10,2.72727273 L10,8.18181818 C10,9.68804932 8.77895841,10.9090909 7.27272727,10.9090909 L5.45454545,10.9090909 C3.94831432,10.9090909 2.72727273,9.68804932 2.72727273,8.18181818"/>
            </g>
        </g>
        
        <g id="Group" transform="translate(240.000000, 0.000000)" stroke="#000000" stroke-linecap="round">
            <g transform="translate(4.000000, 7.000000)">
                <path d="M1.8973666,0.632455532 L16.8434199,5.61447329 C17.3673632,5.78912106 17.6505232,6.35544104 17.4758754,6.87938436 C17.3967579,7.11673702 17.2315419,7.31581005 17.012835,7.43731387 L10.8571429,10.8571429 L10.8571429,10.8571429 L7.43731387,17.012835 C7.16910068,17.4956188 6.56029739,17.6695626 6.07751366,17.4013494 C5.85880679,17.2798456 5.69359084,17.0807725 5.61447329,16.8434199 L0.632455532,1.8973666 C0.457807759,1.37342328 0.740967746,0.807103305 1.26491106,0.632455532 C1.47017787,0.564033263 1.69209979,0.564033263 1.8973666,0.632455532 Z" id="Rectangle" transform="translate(9.500000, 9.500000) rotate(-270.000000) translate(-9.500000, -9.500000) "/>
                <line x1="18" y1="1" x2="8.10050506" y2="10.8994949" id="Path-7"/>
            </g>
        </g>
    </g>
</svg>